M48
; DRILL file {KiCad (5.1.5)-3} date 21.03.2020 18:00:02
; FORMAT={-:-/ absolute / inch / decimal}
; #@! TF.CreationDate,2020-03-21T18:00:02+01:00
; #@! TF.GenerationSoftware,Kicad,Pcbnew,(5.1.5)-3
; #@! TF.FileFunction,Plated,1,2,PTH
FMAT,2
INCH
T1C0.0118
T2C0.0236
T3C0.0354
T4C0.0394
T5C0.0472
T6C0.0512
T7C0.0551
%
G90
G05
T1
X2.4803Y-3.7441
X2.513Y-3.8634
X2.5197Y-2.626
X2.5578Y-2.8728
X2.597Y-5.051
X2.614Y-2.154
X2.6339Y-3.6417
X2.6446Y-3.8454
X2.6457Y-3.7953
X2.8Y-2.6925
X2.81Y-2.6525
X2.82Y-3.275
X2.8583Y-4.0079
X2.8622Y-2.8071
X2.864Y-2.656
X2.886Y-2.92
X2.886Y-2.955
X2.886Y-2.99
X2.886Y-3.025
X2.886Y-3.06
X2.886Y-3.095
X2.886Y-3.13
X2.892Y-2.784
X2.9025Y-3.22
X2.908Y-2.752
X2.912Y-2.938
X2.912Y-2.973
X2.912Y-3.008
X2.912Y-3.043
X2.912Y-3.078
X2.912Y-3.113
X2.9123Y-3.416
X2.928Y-2.1565
X2.9331Y-4.3071
X2.94Y-2.954
X2.94Y-2.989
X2.94Y-3.024
X2.94Y-3.059
X2.94Y-3.094
X2.9882Y-2.8583
X3.0827Y-3.9094
X3.1299Y-3.8622
X3.1654Y-3.8268
X3.2175Y-2.1015
X3.228Y-2.758
X3.228Y-2.796
X3.3189Y-4.2087
X3.4565Y-3.168
X3.4565Y-3.2
X3.4565Y-3.232
X3.4565Y-3.264
X3.4565Y-3.296
X3.4565Y-3.328
X3.4565Y-3.36
X3.4565Y-3.392
X3.4565Y-3.426
X3.522Y-2.71
X3.548Y-4.68
X3.566Y-4.654
X3.582Y-4.626
X3.583Y-4.68
X3.601Y-4.654
X3.617Y-4.626
X3.618Y-4.68
X3.622Y-2.7101
X3.636Y-4.654
X3.652Y-4.626
X3.653Y-4.68
X3.6555Y-3.7224
X3.671Y-4.654
X3.687Y-4.626
X3.688Y-4.68
X3.706Y-4.654
X3.722Y-4.626
X3.723Y-4.68
X3.741Y-4.654
X3.758Y-4.68
X3.833Y-2.901
X3.8583Y-2.248
X3.862Y-2.657
X3.96Y-2.935
X3.96Y-2.9665
X3.96Y-2.998
X3.96Y-3.0295
X3.96Y-3.061
X3.96Y-3.0925
X3.96Y-3.124
X3.96Y-3.1555
X3.96Y-3.187
X4.038Y-4.424
X4.124Y-3.51
X4.4331Y-2.75
X4.95Y-4.42
X4.95Y-4.452
X4.95Y-4.484
X4.951Y-2.839
X4.995Y-4.3975
X5.0575Y-4.35
X5.0575Y-4.382
X5.1035Y-3.704
X5.104Y-3.664
X5.105Y-3.628
X5.125Y-3.3465
X5.126Y-2.891
X5.126Y-3.0285
X5.1595Y-2.2945
X5.298Y-3.52
X5.298Y-3.558
X5.298Y-3.598
X5.31Y-4.35
X5.311Y-4.382
X5.312Y-4.414
X5.312Y-4.446
X5.312Y-4.478
X5.376Y-3.464
X5.466Y-3.73
X5.482Y-3.674
X5.51Y-3.918
T2
X2.438Y-2.187
X2.452Y-2.108
X2.497Y-2.187
X2.568Y-4.4945
X2.6794Y-4.7781
X3.457Y-4.619
X3.709Y-2.157
X4.1554Y-4.7596
X4.6334Y-4.7586
X5.105Y-4.7575
X5.579Y-4.753
T3
X4.6255Y-3.435
X4.6255Y-3.5649
X4.7239Y-3.435
X4.7239Y-3.5649
X4.8224Y-3.435
X4.8224Y-3.5649
T4
X2.5325Y-2.515
X2.6325Y-2.515
X2.7325Y-2.515
X2.8325Y-2.515
X3.464Y-4.474
X3.538Y-3.498
X2.532Y-3.2718
X2.532Y-3.3899
X2.532Y-3.508
X2.6501Y-3.2718
X2.6501Y-3.3899
X2.6501Y-3.508
X3.422Y-2.4823
X3.422Y-2.5823
X3.522Y-2.4823
X3.522Y-2.5823
X3.622Y-2.4823
X3.622Y-2.5823
X3.722Y-2.4823
X3.722Y-2.5823
X3.822Y-2.4823
X3.822Y-2.5823
X3.922Y-2.4823
X3.922Y-2.5823
X4.022Y-2.4823
X4.022Y-2.5823
X4.122Y-2.4823
X4.122Y-2.5823
X4.222Y-2.4823
X4.222Y-2.5823
X4.322Y-2.4823
X4.322Y-2.5823
X4.422Y-2.4823
X4.422Y-2.5823
X4.522Y-2.4823
X4.522Y-2.5823
X4.622Y-2.4823
X4.622Y-2.5823
X4.722Y-2.4823
X4.722Y-2.5823
X4.822Y-2.4823
X4.822Y-2.5823
X4.922Y-2.4823
X4.922Y-2.5823
X5.022Y-2.4823
X5.022Y-2.5823
X5.122Y-2.4823
X5.122Y-2.5823
X5.222Y-2.4823
X5.222Y-2.5823
X5.322Y-2.4823
X5.322Y-2.5823
X3.538Y-3.744
X3.538Y-3.62
T5
X5.3545Y-2.7534
X5.3545Y-2.8912
X5.3545Y-3.029
X5.3543Y-3.2087
X5.3543Y-3.3465
T6
X2.186Y-5.0935
X2.186Y-5.2904
X3.8655Y-5.19
X4.0623Y-5.19
X2.1855Y-2.187
X2.1855Y-2.3839
X2.1855Y-2.5807
X5.29Y-5.19
X5.4869Y-5.19
X2.186Y-4.1671
X2.186Y-4.364
X4.6605Y-2.3495
X4.9605Y-1.6495
X4.9605Y-1.9495
X4.9605Y-2.3495
X3.9943Y-1.839
X4.1911Y-1.839
X4.388Y-1.839
X4.3403Y-5.19
X4.5372Y-5.19
X2.5221Y-5.19
X2.7189Y-5.19
X2.9158Y-5.19
X3.1126Y-5.19
X2.186Y-2.847
X2.186Y-3.0439
X2.186Y-3.2407
X5.2396Y-1.8385
X5.4365Y-1.8385
X2.186Y-4.6303
X2.186Y-4.8272
X2.186Y-3.5071
X2.186Y-3.7039
X2.186Y-3.9008
X3.349Y-1.839
X3.5458Y-1.839
X3.7427Y-1.839
X4.8152Y-5.19
X5.012Y-5.19
X3.3906Y-5.19
X3.5875Y-5.19
X2.7036Y-1.839
X2.9005Y-1.839
X3.0973Y-1.839
X2.0583Y-1.839
X2.2551Y-1.839
X2.452Y-1.839
T7
X3.4793Y-3.97
X3.4793Y-4.1865
X3.6446Y-3.97
X3.6446Y-4.1865
X3.81Y-3.97
X3.81Y-4.1865
X3.9754Y-3.97
X3.9754Y-4.1865
X4.1407Y-3.97
X4.1407Y-4.1865
X4.3061Y-3.97
X4.3061Y-4.1865
X4.4714Y-3.97
X4.4714Y-4.1865
X4.6368Y-3.97
X4.6368Y-4.1865
X4.8021Y-3.97
X4.8021Y-4.1865
X4.9675Y-3.97
X4.9675Y-4.1865
X5.1328Y-3.97
X5.1328Y-4.1865
X5.2982Y-3.97
X5.2982Y-4.1865
T0
M30
