G04 #@! TF.GenerationSoftware,KiCad,Pcbnew,(5.1.5)-3*
G04 #@! TF.CreationDate,2020-03-21T18:00:00+01:00*
G04 #@! TF.ProjectId,fusioncore,66757369-6f6e-4636-9f72-652e6b696361,A*
G04 #@! TF.SameCoordinates,Original*
G04 #@! TF.FileFunction,Legend,Bot*
G04 #@! TF.FilePolarity,Positive*
%FSLAX46Y46*%
G04 Gerber Fmt 4.6, Leading zero omitted, Abs format (unit mm)*
G04 Created by KiCad (PCBNEW (5.1.5)-3) date 2020-03-21 18:00:00*
%MOMM*%
%LPD*%
G04 APERTURE LIST*
%ADD10C,0.090000*%
%ADD11C,0.100000*%
%ADD12C,0.150000*%
%ADD13C,0.120000*%
G04 APERTURE END LIST*
D10*
X63171428Y-98171428D02*
X63514285Y-98171428D01*
X63342857Y-98171428D02*
X63342857Y-97571428D01*
X63400000Y-97657142D01*
X63457142Y-97714285D01*
X63514285Y-97742857D01*
X62942857Y-97628571D02*
X62914285Y-97600000D01*
X62857142Y-97571428D01*
X62714285Y-97571428D01*
X62657142Y-97600000D01*
X62628571Y-97628571D01*
X62600000Y-97685714D01*
X62600000Y-97742857D01*
X62628571Y-97828571D01*
X62971428Y-98171428D01*
X62600000Y-98171428D01*
X62428571Y-97571428D02*
X62228571Y-98171428D01*
X62028571Y-97571428D01*
X66442857Y-97571428D02*
X66071428Y-97571428D01*
X66271428Y-97800000D01*
X66185714Y-97800000D01*
X66128571Y-97828571D01*
X66100000Y-97857142D01*
X66071428Y-97914285D01*
X66071428Y-98057142D01*
X66100000Y-98114285D01*
X66128571Y-98142857D01*
X66185714Y-98171428D01*
X66357142Y-98171428D01*
X66414285Y-98142857D01*
X66442857Y-98114285D01*
X65900000Y-97571428D02*
X65700000Y-98171428D01*
X65500000Y-97571428D01*
X65357142Y-97571428D02*
X64985714Y-97571428D01*
X65185714Y-97800000D01*
X65100000Y-97800000D01*
X65042857Y-97828571D01*
X65014285Y-97857142D01*
X64985714Y-97914285D01*
X64985714Y-98057142D01*
X65014285Y-98114285D01*
X65042857Y-98142857D01*
X65100000Y-98171428D01*
X65271428Y-98171428D01*
X65328571Y-98142857D01*
X65357142Y-98114285D01*
X63371428Y-94171428D02*
X63714285Y-94171428D01*
X63542857Y-94171428D02*
X63542857Y-93571428D01*
X63600000Y-93657142D01*
X63657142Y-93714285D01*
X63714285Y-93742857D01*
X63142857Y-93628571D02*
X63114285Y-93600000D01*
X63057142Y-93571428D01*
X62914285Y-93571428D01*
X62857142Y-93600000D01*
X62828571Y-93628571D01*
X62800000Y-93685714D01*
X62800000Y-93742857D01*
X62828571Y-93828571D01*
X63171428Y-94171428D01*
X62800000Y-94171428D01*
X62628571Y-93571428D02*
X62428571Y-94171428D01*
X62228571Y-93571428D01*
X66442857Y-93571428D02*
X66071428Y-93571428D01*
X66271428Y-93800000D01*
X66185714Y-93800000D01*
X66128571Y-93828571D01*
X66100000Y-93857142D01*
X66071428Y-93914285D01*
X66071428Y-94057142D01*
X66100000Y-94114285D01*
X66128571Y-94142857D01*
X66185714Y-94171428D01*
X66357142Y-94171428D01*
X66414285Y-94142857D01*
X66442857Y-94114285D01*
X65900000Y-93571428D02*
X65700000Y-94171428D01*
X65500000Y-93571428D01*
X65357142Y-93571428D02*
X64985714Y-93571428D01*
X65185714Y-93800000D01*
X65100000Y-93800000D01*
X65042857Y-93828571D01*
X65014285Y-93857142D01*
X64985714Y-93914285D01*
X64985714Y-94057142D01*
X65014285Y-94114285D01*
X65042857Y-94142857D01*
X65100000Y-94171428D01*
X65271428Y-94171428D01*
X65328571Y-94142857D01*
X65357142Y-94114285D01*
D11*
X142055904Y-82572571D02*
X142627333Y-82572571D01*
X142741619Y-82544000D01*
X142817809Y-82486857D01*
X142855904Y-82401142D01*
X142855904Y-82344000D01*
X142855904Y-83144000D02*
X142855904Y-82858285D01*
X142055904Y-82858285D01*
X142779714Y-83686857D02*
X142817809Y-83658285D01*
X142855904Y-83572571D01*
X142855904Y-83515428D01*
X142817809Y-83429714D01*
X142741619Y-83372571D01*
X142665428Y-83344000D01*
X142513047Y-83315428D01*
X142398761Y-83315428D01*
X142246380Y-83344000D01*
X142170190Y-83372571D01*
X142094000Y-83429714D01*
X142055904Y-83515428D01*
X142055904Y-83572571D01*
X142094000Y-83658285D01*
X142132095Y-83686857D01*
X142055904Y-84115428D02*
X142627333Y-84115428D01*
X142741619Y-84086857D01*
X142817809Y-84029714D01*
X142855904Y-83944000D01*
X142855904Y-83886857D01*
X142855904Y-84686857D02*
X142855904Y-84401142D01*
X142055904Y-84401142D01*
X142779714Y-85229714D02*
X142817809Y-85201142D01*
X142855904Y-85115428D01*
X142855904Y-85058285D01*
X142817809Y-84972571D01*
X142741619Y-84915428D01*
X142665428Y-84886857D01*
X142513047Y-84858285D01*
X142398761Y-84858285D01*
X142246380Y-84886857D01*
X142170190Y-84915428D01*
X142094000Y-84972571D01*
X142055904Y-85058285D01*
X142055904Y-85115428D01*
X142094000Y-85201142D01*
X142132095Y-85229714D01*
X142055904Y-85658285D02*
X142627333Y-85658285D01*
X142741619Y-85629714D01*
X142817809Y-85572571D01*
X142855904Y-85486857D01*
X142855904Y-85429714D01*
X142855904Y-86229714D02*
X142855904Y-85944000D01*
X142055904Y-85944000D01*
X142779714Y-86772571D02*
X142817809Y-86744000D01*
X142855904Y-86658285D01*
X142855904Y-86601142D01*
X142817809Y-86515428D01*
X142741619Y-86458285D01*
X142665428Y-86429714D01*
X142513047Y-86401142D01*
X142398761Y-86401142D01*
X142246380Y-86429714D01*
X142170190Y-86458285D01*
X142094000Y-86515428D01*
X142055904Y-86601142D01*
X142055904Y-86658285D01*
X142094000Y-86744000D01*
X142132095Y-86772571D01*
X142055904Y-87201142D02*
X142627333Y-87201142D01*
X142741619Y-87172571D01*
X142817809Y-87115428D01*
X142855904Y-87029714D01*
X142855904Y-86972571D01*
X142855904Y-87772571D02*
X142855904Y-87486857D01*
X142055904Y-87486857D01*
X142779714Y-88315428D02*
X142817809Y-88286857D01*
X142855904Y-88201142D01*
X142855904Y-88144000D01*
X142817809Y-88058285D01*
X142741619Y-88001142D01*
X142665428Y-87972571D01*
X142513047Y-87944000D01*
X142398761Y-87944000D01*
X142246380Y-87972571D01*
X142170190Y-88001142D01*
X142094000Y-88058285D01*
X142055904Y-88144000D01*
X142055904Y-88201142D01*
X142094000Y-88286857D01*
X142132095Y-88315428D01*
D12*
X85090000Y-60960000D02*
X93980000Y-69850000D01*
D13*
G04 #@! TO.C,JP4*
X62250000Y-93400000D02*
X66350000Y-93400000D01*
X66350000Y-93400000D02*
X66350000Y-91400000D01*
X66350000Y-91400000D02*
X62250000Y-91400000D01*
X62250000Y-91400000D02*
X62250000Y-93400000D01*
X63000000Y-91200000D02*
X62700000Y-90900000D01*
X62700000Y-90900000D02*
X63300000Y-90900000D01*
X63000000Y-91200000D02*
X63300000Y-90900000D01*
G04 #@! TO.C,JP3*
X62250000Y-97400000D02*
X66350000Y-97400000D01*
X66350000Y-97400000D02*
X66350000Y-95400000D01*
X66350000Y-95400000D02*
X62250000Y-95400000D01*
X62250000Y-95400000D02*
X62250000Y-97400000D01*
X63000000Y-95200000D02*
X62700000Y-94900000D01*
X62700000Y-94900000D02*
X63300000Y-94900000D01*
X63000000Y-95200000D02*
X63300000Y-94900000D01*
G04 #@! TO.C,J1*
X85590000Y-61720000D02*
X85590000Y-64320000D01*
X85590000Y-61720000D02*
X136510000Y-61720000D01*
X136510000Y-61720000D02*
X136510000Y-66920000D01*
X88190000Y-66920000D02*
X136510000Y-66920000D01*
X88190000Y-64320000D02*
X88190000Y-66920000D01*
X85590000Y-64320000D02*
X88190000Y-64320000D01*
X85590000Y-66920000D02*
X86920000Y-66920000D01*
X85590000Y-65590000D02*
X85590000Y-66920000D01*
G04 #@! TD*
G04 #@! TO.C,JP4*
D12*
X65541666Y-90544047D02*
X65541666Y-91008333D01*
X65572619Y-91101190D01*
X65634523Y-91163095D01*
X65727380Y-91194047D01*
X65789285Y-91194047D01*
X65232142Y-91194047D02*
X65232142Y-90544047D01*
X64984523Y-90544047D01*
X64922619Y-90575000D01*
X64891666Y-90605952D01*
X64860714Y-90667857D01*
X64860714Y-90760714D01*
X64891666Y-90822619D01*
X64922619Y-90853571D01*
X64984523Y-90884523D01*
X65232142Y-90884523D01*
X64303571Y-90760714D02*
X64303571Y-91194047D01*
X64458333Y-90513095D02*
X64613095Y-90977380D01*
X64210714Y-90977380D01*
X61921428Y-92694047D02*
X61921428Y-92044047D01*
X61642857Y-92105952D02*
X61611904Y-92075000D01*
X61550000Y-92044047D01*
X61395238Y-92044047D01*
X61333333Y-92075000D01*
X61302380Y-92105952D01*
X61271428Y-92167857D01*
X61271428Y-92229761D01*
X61302380Y-92322619D01*
X61673809Y-92694047D01*
X61271428Y-92694047D01*
X60621428Y-92632142D02*
X60652380Y-92663095D01*
X60745238Y-92694047D01*
X60807142Y-92694047D01*
X60900000Y-92663095D01*
X60961904Y-92601190D01*
X60992857Y-92539285D01*
X61023809Y-92415476D01*
X61023809Y-92322619D01*
X60992857Y-92198809D01*
X60961904Y-92136904D01*
X60900000Y-92075000D01*
X60807142Y-92044047D01*
X60745238Y-92044047D01*
X60652380Y-92075000D01*
X60621428Y-92105952D01*
X60497619Y-92755952D02*
X60002380Y-92755952D01*
X59878571Y-92663095D02*
X59785714Y-92694047D01*
X59630952Y-92694047D01*
X59569047Y-92663095D01*
X59538095Y-92632142D01*
X59507142Y-92570238D01*
X59507142Y-92508333D01*
X59538095Y-92446428D01*
X59569047Y-92415476D01*
X59630952Y-92384523D01*
X59754761Y-92353571D01*
X59816666Y-92322619D01*
X59847619Y-92291666D01*
X59878571Y-92229761D01*
X59878571Y-92167857D01*
X59847619Y-92105952D01*
X59816666Y-92075000D01*
X59754761Y-92044047D01*
X59600000Y-92044047D01*
X59507142Y-92075000D01*
X59228571Y-92694047D02*
X59228571Y-92044047D01*
X59073809Y-92044047D01*
X58980952Y-92075000D01*
X58919047Y-92136904D01*
X58888095Y-92198809D01*
X58857142Y-92322619D01*
X58857142Y-92415476D01*
X58888095Y-92539285D01*
X58919047Y-92601190D01*
X58980952Y-92663095D01*
X59073809Y-92694047D01*
X59228571Y-92694047D01*
X58609523Y-92508333D02*
X58300000Y-92508333D01*
X58671428Y-92694047D02*
X58454761Y-92044047D01*
X58238095Y-92694047D01*
X58176190Y-92755952D02*
X57680952Y-92755952D01*
X57619047Y-92044047D02*
X57402380Y-92694047D01*
X57185714Y-92044047D01*
G04 #@! TO.C,JP3*
X65441666Y-94544047D02*
X65441666Y-95008333D01*
X65472619Y-95101190D01*
X65534523Y-95163095D01*
X65627380Y-95194047D01*
X65689285Y-95194047D01*
X65132142Y-95194047D02*
X65132142Y-94544047D01*
X64884523Y-94544047D01*
X64822619Y-94575000D01*
X64791666Y-94605952D01*
X64760714Y-94667857D01*
X64760714Y-94760714D01*
X64791666Y-94822619D01*
X64822619Y-94853571D01*
X64884523Y-94884523D01*
X65132142Y-94884523D01*
X64544047Y-94544047D02*
X64141666Y-94544047D01*
X64358333Y-94791666D01*
X64265476Y-94791666D01*
X64203571Y-94822619D01*
X64172619Y-94853571D01*
X64141666Y-94915476D01*
X64141666Y-95070238D01*
X64172619Y-95132142D01*
X64203571Y-95163095D01*
X64265476Y-95194047D01*
X64451190Y-95194047D01*
X64513095Y-95163095D01*
X64544047Y-95132142D01*
X61905952Y-96694047D02*
X61905952Y-96044047D01*
X61627380Y-96105952D02*
X61596428Y-96075000D01*
X61534523Y-96044047D01*
X61379761Y-96044047D01*
X61317857Y-96075000D01*
X61286904Y-96105952D01*
X61255952Y-96167857D01*
X61255952Y-96229761D01*
X61286904Y-96322619D01*
X61658333Y-96694047D01*
X61255952Y-96694047D01*
X60605952Y-96632142D02*
X60636904Y-96663095D01*
X60729761Y-96694047D01*
X60791666Y-96694047D01*
X60884523Y-96663095D01*
X60946428Y-96601190D01*
X60977380Y-96539285D01*
X61008333Y-96415476D01*
X61008333Y-96322619D01*
X60977380Y-96198809D01*
X60946428Y-96136904D01*
X60884523Y-96075000D01*
X60791666Y-96044047D01*
X60729761Y-96044047D01*
X60636904Y-96075000D01*
X60605952Y-96105952D01*
X60482142Y-96755952D02*
X59986904Y-96755952D01*
X59863095Y-96663095D02*
X59770238Y-96694047D01*
X59615476Y-96694047D01*
X59553571Y-96663095D01*
X59522619Y-96632142D01*
X59491666Y-96570238D01*
X59491666Y-96508333D01*
X59522619Y-96446428D01*
X59553571Y-96415476D01*
X59615476Y-96384523D01*
X59739285Y-96353571D01*
X59801190Y-96322619D01*
X59832142Y-96291666D01*
X59863095Y-96229761D01*
X59863095Y-96167857D01*
X59832142Y-96105952D01*
X59801190Y-96075000D01*
X59739285Y-96044047D01*
X59584523Y-96044047D01*
X59491666Y-96075000D01*
X58841666Y-96632142D02*
X58872619Y-96663095D01*
X58965476Y-96694047D01*
X59027380Y-96694047D01*
X59120238Y-96663095D01*
X59182142Y-96601190D01*
X59213095Y-96539285D01*
X59244047Y-96415476D01*
X59244047Y-96322619D01*
X59213095Y-96198809D01*
X59182142Y-96136904D01*
X59120238Y-96075000D01*
X59027380Y-96044047D01*
X58965476Y-96044047D01*
X58872619Y-96075000D01*
X58841666Y-96105952D01*
X58253571Y-96694047D02*
X58563095Y-96694047D01*
X58563095Y-96044047D01*
X58191666Y-96755952D02*
X57696428Y-96755952D01*
X57634523Y-96044047D02*
X57417857Y-96694047D01*
X57201190Y-96044047D01*
G04 #@! TO.C,H5*
X53561904Y-134852380D02*
X53561904Y-133852380D01*
X53561904Y-134328571D02*
X52990476Y-134328571D01*
X52990476Y-134852380D02*
X52990476Y-133852380D01*
X52038095Y-133852380D02*
X52514285Y-133852380D01*
X52561904Y-134328571D01*
X52514285Y-134280952D01*
X52419047Y-134233333D01*
X52180952Y-134233333D01*
X52085714Y-134280952D01*
X52038095Y-134328571D01*
X51990476Y-134423809D01*
X51990476Y-134661904D01*
X52038095Y-134757142D01*
X52085714Y-134804761D01*
X52180952Y-134852380D01*
X52419047Y-134852380D01*
X52514285Y-134804761D01*
X52561904Y-134757142D01*
G04 #@! TO.C,H6*
X141890704Y-44452380D02*
X141890704Y-43452380D01*
X141890704Y-43928571D02*
X141319276Y-43928571D01*
X141319276Y-44452380D02*
X141319276Y-43452380D01*
X140414514Y-43452380D02*
X140604990Y-43452380D01*
X140700228Y-43500000D01*
X140747847Y-43547619D01*
X140843085Y-43690476D01*
X140890704Y-43880952D01*
X140890704Y-44261904D01*
X140843085Y-44357142D01*
X140795466Y-44404761D01*
X140700228Y-44452380D01*
X140509752Y-44452380D01*
X140414514Y-44404761D01*
X140366895Y-44357142D01*
X140319276Y-44261904D01*
X140319276Y-44023809D01*
X140366895Y-43928571D01*
X140414514Y-43880952D01*
X140509752Y-43833333D01*
X140700228Y-43833333D01*
X140795466Y-43880952D01*
X140843085Y-43928571D01*
X140890704Y-44023809D01*
G04 #@! TO.C,J1*
X83602380Y-63986666D02*
X84316666Y-63986666D01*
X84459523Y-63939047D01*
X84554761Y-63843809D01*
X84602380Y-63700952D01*
X84602380Y-63605714D01*
X84602380Y-64986666D02*
X84602380Y-64415238D01*
X84602380Y-64700952D02*
X83602380Y-64700952D01*
X83745238Y-64605714D01*
X83840476Y-64510476D01*
X83888095Y-64415238D01*
G04 #@! TD*
M02*
