G04 #@! TF.GenerationSoftware,KiCad,Pcbnew,(5.1.5)-3*
G04 #@! TF.CreationDate,2020-03-21T18:00:00+01:00*
G04 #@! TF.ProjectId,fusioncore,66757369-6f6e-4636-9f72-652e6b696361,A*
G04 #@! TF.SameCoordinates,Original*
G04 #@! TF.FileFunction,Soldermask,Bot*
G04 #@! TF.FilePolarity,Negative*
%FSLAX46Y46*%
G04 Gerber Fmt 4.6, Leading zero omitted, Abs format (unit mm)*
G04 Created by KiCad (PCBNEW (5.1.5)-3) date 2020-03-21 18:00:00*
%MOMM*%
%LPD*%
G04 APERTURE LIST*
%ADD10C,0.150000*%
%ADD11O,2.860000X3.460000*%
%ADD12R,1.160000X1.660000*%
%ADD13C,2.760000*%
%ADD14R,2.760000X2.760000*%
%ADD15C,2.560000*%
%ADD16R,2.560000X2.560000*%
%ADD17C,2.460000*%
%ADD18R,2.460000X2.460000*%
%ADD19C,1.448000*%
%ADD20O,1.860000X1.860000*%
%ADD21R,1.860000X1.860000*%
%ADD22C,1.660000*%
%ADD23C,1.160000*%
%ADD24C,1.560000*%
%ADD25R,1.560000X1.560000*%
%ADD26C,2.160000*%
%ADD27C,3.160000*%
G04 APERTURE END LIST*
D10*
G04 #@! TO.C,J2*
G36*
X135765141Y-104609275D02*
G01*
X135790848Y-104613088D01*
X135816057Y-104619403D01*
X135840525Y-104628158D01*
X135864018Y-104639269D01*
X135886308Y-104652629D01*
X135907182Y-104668110D01*
X135926437Y-104685563D01*
X135943890Y-104704818D01*
X135959371Y-104725692D01*
X135972731Y-104747982D01*
X135983842Y-104771475D01*
X135992597Y-104795943D01*
X135998912Y-104821152D01*
X136002725Y-104846859D01*
X136004000Y-104872815D01*
X136004000Y-107803185D01*
X136002725Y-107829141D01*
X135998912Y-107854848D01*
X135992597Y-107880057D01*
X135983842Y-107904525D01*
X135972731Y-107928018D01*
X135959371Y-107950308D01*
X135943890Y-107971182D01*
X135926437Y-107990437D01*
X135907182Y-108007890D01*
X135886308Y-108023371D01*
X135864018Y-108036731D01*
X135840525Y-108047842D01*
X135816057Y-108056597D01*
X135790848Y-108062912D01*
X135765141Y-108066725D01*
X135739185Y-108068000D01*
X133408815Y-108068000D01*
X133382859Y-108066725D01*
X133357152Y-108062912D01*
X133331943Y-108056597D01*
X133307475Y-108047842D01*
X133283982Y-108036731D01*
X133261692Y-108023371D01*
X133240818Y-108007890D01*
X133221563Y-107990437D01*
X133204110Y-107971182D01*
X133188629Y-107950308D01*
X133175269Y-107928018D01*
X133164158Y-107904525D01*
X133155403Y-107880057D01*
X133149088Y-107854848D01*
X133145275Y-107829141D01*
X133144000Y-107803185D01*
X133144000Y-104872815D01*
X133145275Y-104846859D01*
X133149088Y-104821152D01*
X133155403Y-104795943D01*
X133164158Y-104771475D01*
X133175269Y-104747982D01*
X133188629Y-104725692D01*
X133204110Y-104704818D01*
X133221563Y-104685563D01*
X133240818Y-104668110D01*
X133261692Y-104652629D01*
X133283982Y-104639269D01*
X133307475Y-104628158D01*
X133331943Y-104619403D01*
X133357152Y-104613088D01*
X133382859Y-104609275D01*
X133408815Y-104608000D01*
X135739185Y-104608000D01*
X135765141Y-104609275D01*
G37*
D11*
X130374000Y-106338000D03*
X126174000Y-106338000D03*
X121974000Y-106338000D03*
X117774000Y-106338000D03*
X113574000Y-106338000D03*
X109374000Y-106338000D03*
X105174000Y-106338000D03*
X100974000Y-106338000D03*
X96774000Y-106338000D03*
X92574000Y-106338000D03*
X88374000Y-106338000D03*
X134574000Y-100838000D03*
X130374000Y-100838000D03*
X126174000Y-100838000D03*
X121974000Y-100838000D03*
X117774000Y-100838000D03*
X113574000Y-100838000D03*
X109374000Y-100838000D03*
X105174000Y-100838000D03*
X100974000Y-100838000D03*
X96774000Y-100838000D03*
X92574000Y-100838000D03*
X88374000Y-100838000D03*
G04 #@! TD*
D12*
G04 #@! TO.C,JP4*
X63000000Y-92400000D03*
X64300000Y-92400000D03*
X65600000Y-92400000D03*
G04 #@! TD*
G04 #@! TO.C,JP3*
X63000000Y-96400000D03*
X64300000Y-96400000D03*
X65600000Y-96400000D03*
G04 #@! TD*
D13*
G04 #@! TO.C,J24*
X133087100Y-46697900D03*
D14*
X138087100Y-46697900D03*
G04 #@! TD*
D15*
G04 #@! TO.C,J4*
X136004300Y-69936600D03*
X136004300Y-73436600D03*
D16*
X136004300Y-76936600D03*
G04 #@! TD*
D15*
G04 #@! TO.C,J15*
X136000000Y-81500000D03*
D16*
X136000000Y-85000000D03*
G04 #@! TD*
D17*
G04 #@! TO.C,K1*
X118376700Y-59677300D03*
X125996700Y-41897300D03*
X125996700Y-49517300D03*
D18*
X125996700Y-59677300D03*
G04 #@! TD*
D19*
G04 #@! TO.C,H5*
X52800000Y-135800000D03*
G04 #@! TD*
G04 #@! TO.C,H6*
X139300000Y-44000000D03*
G04 #@! TD*
D20*
G04 #@! TO.C,J12*
X64325500Y-63881000D03*
X66865500Y-63881000D03*
X69405500Y-63881000D03*
D21*
X71945500Y-63881000D03*
G04 #@! TD*
D22*
G04 #@! TO.C,J13*
X67312800Y-83103200D03*
X67312800Y-86103200D03*
X67312800Y-89103200D03*
X64312800Y-83103200D03*
X64312800Y-86103200D03*
D10*
G36*
X64893251Y-88274532D02*
G01*
X64920108Y-88278516D01*
X64946445Y-88285113D01*
X64972009Y-88294260D01*
X64996553Y-88305868D01*
X65019841Y-88319827D01*
X65041649Y-88336001D01*
X65061766Y-88354234D01*
X65079999Y-88374351D01*
X65096173Y-88396159D01*
X65110132Y-88419447D01*
X65121740Y-88443991D01*
X65130887Y-88469555D01*
X65137484Y-88495892D01*
X65141468Y-88522749D01*
X65142800Y-88549867D01*
X65142800Y-89656533D01*
X65141468Y-89683651D01*
X65137484Y-89710508D01*
X65130887Y-89736845D01*
X65121740Y-89762409D01*
X65110132Y-89786953D01*
X65096173Y-89810241D01*
X65079999Y-89832049D01*
X65061766Y-89852166D01*
X65041649Y-89870399D01*
X65019841Y-89886573D01*
X64996553Y-89900532D01*
X64972009Y-89912140D01*
X64946445Y-89921287D01*
X64920108Y-89927884D01*
X64893251Y-89931868D01*
X64866133Y-89933200D01*
X63759467Y-89933200D01*
X63732349Y-89931868D01*
X63705492Y-89927884D01*
X63679155Y-89921287D01*
X63653591Y-89912140D01*
X63629047Y-89900532D01*
X63605759Y-89886573D01*
X63583951Y-89870399D01*
X63563834Y-89852166D01*
X63545601Y-89832049D01*
X63529427Y-89810241D01*
X63515468Y-89786953D01*
X63503860Y-89762409D01*
X63494713Y-89736845D01*
X63488116Y-89710508D01*
X63484132Y-89683651D01*
X63482800Y-89656533D01*
X63482800Y-88549867D01*
X63484132Y-88522749D01*
X63488116Y-88495892D01*
X63494713Y-88469555D01*
X63503860Y-88443991D01*
X63515468Y-88419447D01*
X63529427Y-88396159D01*
X63545601Y-88374351D01*
X63563834Y-88354234D01*
X63583951Y-88336001D01*
X63605759Y-88319827D01*
X63629047Y-88305868D01*
X63653591Y-88294260D01*
X63679155Y-88285113D01*
X63705492Y-88278516D01*
X63732349Y-88274532D01*
X63759467Y-88273200D01*
X64866133Y-88273200D01*
X64893251Y-88274532D01*
G37*
D23*
X68252800Y-80103200D03*
X68252800Y-92103200D03*
G04 #@! TD*
D24*
G04 #@! TO.C,SW1*
X122487700Y-90549000D03*
X119987700Y-90549000D03*
X117487700Y-90549000D03*
X122487700Y-87249000D03*
X119987700Y-87249000D03*
D25*
X117487700Y-87249000D03*
G04 #@! TD*
D26*
G04 #@! TO.C,TP4*
X87985600Y-113639600D03*
G04 #@! TD*
G04 #@! TO.C,TP3*
X89865200Y-91948000D03*
G04 #@! TD*
G04 #@! TO.C,TP2*
X89865200Y-95097600D03*
G04 #@! TD*
G04 #@! TO.C,TP1*
X89865200Y-88849200D03*
G04 #@! TD*
D13*
G04 #@! TO.C,J20*
X52280800Y-46710600D03*
X57280800Y-46710600D03*
D14*
X62280800Y-46710600D03*
G04 #@! TD*
D13*
G04 #@! TO.C,J19*
X55511700Y-65549800D03*
X55511700Y-60549800D03*
D14*
X55511700Y-55549800D03*
G04 #@! TD*
D13*
G04 #@! TO.C,J18*
X55524400Y-82314820D03*
X55524400Y-77314820D03*
D14*
X55524400Y-72314820D03*
G04 #@! TD*
D13*
G04 #@! TO.C,J17*
X55524400Y-99079840D03*
X55524400Y-94079840D03*
D14*
X55524400Y-89079840D03*
G04 #@! TD*
D13*
G04 #@! TO.C,J14*
X101455200Y-46710600D03*
X106455200Y-46710600D03*
D14*
X111455200Y-46710600D03*
G04 #@! TD*
D13*
G04 #@! TO.C,J23*
X55524400Y-122609880D03*
D14*
X55524400Y-117609880D03*
G04 #@! TD*
D13*
G04 #@! TO.C,J22*
X55524400Y-134374900D03*
D14*
X55524400Y-129374900D03*
G04 #@! TD*
D13*
G04 #@! TO.C,J21*
X55524400Y-110844860D03*
D14*
X55524400Y-105844860D03*
G04 #@! TD*
D13*
G04 #@! TO.C,J5*
X85063732Y-46710600D03*
X90063732Y-46710600D03*
D14*
X95063732Y-46710600D03*
G04 #@! TD*
D13*
G04 #@! TO.C,J3*
X68672266Y-46710600D03*
X73672266Y-46710600D03*
D14*
X78672266Y-46710600D03*
G04 #@! TD*
D13*
G04 #@! TO.C,J11*
X91121332Y-131826000D03*
D14*
X86121332Y-131826000D03*
G04 #@! TD*
D13*
G04 #@! TO.C,J10*
X103182498Y-131826000D03*
D14*
X98182498Y-131826000D03*
G04 #@! TD*
D13*
G04 #@! TO.C,J9*
X139366000Y-131826000D03*
D14*
X134366000Y-131826000D03*
G04 #@! TD*
D13*
G04 #@! TO.C,J8*
X115243664Y-131826000D03*
D14*
X110243664Y-131826000D03*
G04 #@! TD*
D13*
G04 #@! TO.C,J7*
X127304830Y-131826000D03*
D14*
X122304830Y-131826000D03*
G04 #@! TD*
D21*
G04 #@! TO.C,J1*
X86920000Y-65590000D03*
D20*
X86920000Y-63050000D03*
X89460000Y-65590000D03*
X89460000Y-63050000D03*
X92000000Y-65590000D03*
X92000000Y-63050000D03*
X94540000Y-65590000D03*
X94540000Y-63050000D03*
X97080000Y-65590000D03*
X97080000Y-63050000D03*
X99620000Y-65590000D03*
X99620000Y-63050000D03*
X102160000Y-65590000D03*
X102160000Y-63050000D03*
X104700000Y-65590000D03*
X104700000Y-63050000D03*
X107240000Y-65590000D03*
X107240000Y-63050000D03*
X109780000Y-65590000D03*
X109780000Y-63050000D03*
X112320000Y-65590000D03*
X112320000Y-63050000D03*
X114860000Y-65590000D03*
X114860000Y-63050000D03*
X117400000Y-65590000D03*
X117400000Y-63050000D03*
X119940000Y-65590000D03*
X119940000Y-63050000D03*
X122480000Y-65590000D03*
X122480000Y-63050000D03*
X125020000Y-65590000D03*
X125020000Y-63050000D03*
X127560000Y-65590000D03*
X127560000Y-63050000D03*
X130100000Y-65590000D03*
X130100000Y-63050000D03*
X132640000Y-65590000D03*
X132640000Y-63050000D03*
X135180000Y-65590000D03*
X135180000Y-63050000D03*
G04 #@! TD*
D27*
G04 #@! TO.C,H1*
X82040000Y-64310000D03*
G04 #@! TD*
G04 #@! TO.C,H2*
X140040000Y-64330000D03*
G04 #@! TD*
G04 #@! TO.C,H3*
X82040000Y-113320000D03*
G04 #@! TD*
G04 #@! TO.C,H4*
X140030000Y-113310000D03*
G04 #@! TD*
D14*
G04 #@! TO.C,J16*
X64060166Y-131826000D03*
D13*
X69060166Y-131826000D03*
X74060166Y-131826000D03*
X79060166Y-131826000D03*
G04 #@! TD*
M02*
